<svg xmlns="http://www.w3.org/2000/svg" xmlns:xlink="http://www.w3.org/1999/xlink" width="350" zoomAndPan="magnify" viewBox="0 0 262.5 56.249996" height="75" preserveAspectRatio="xMidYMid meet" version="1.0"><defs><g/></defs><g fill="#1d1e22" fill-opacity="1"><g transform="translate(21.153355, 19.287567)"><g><path d="M 10.421875 -14.4375 C 11.628906 -14.4375 12.566406 -14.195312 13.234375 -13.71875 C 13.898438 -13.238281 14.363281 -12.59375 14.625 -11.78125 C 14.894531 -10.96875 15.03125 -10.046875 15.03125 -9.015625 L 15.03125 0 L 10.390625 0 L 10.390625 -8.484375 C 10.390625 -9.046875 10.332031 -9.519531 10.21875 -9.90625 C 10.101562 -10.300781 9.800781 -10.5 9.3125 -10.5 C 8.78125 -10.5 8.222656 -10.351562 7.640625 -10.0625 C 7.066406 -9.769531 6.554688 -9.445312 6.109375 -9.09375 L 6.109375 0 L 1.515625 0 L 1.515625 -14.125 L 5.5 -14.125 L 5.71875 -12.578125 C 6.457031 -13.085938 7.222656 -13.523438 8.015625 -13.890625 C 8.804688 -14.253906 9.609375 -14.4375 10.421875 -14.4375 Z M 10.421875 -14.4375 "/></g></g></g><g fill="#1d1e22" fill-opacity="1"><g transform="translate(41.414424, 19.287567)"><g><path d="M 7.078125 -14.40625 C 8.648438 -14.40625 10.132812 -14.320312 11.53125 -14.15625 C 12.9375 -13.988281 14.046875 -13.765625 14.859375 -13.484375 L 14.859375 0 L 10.90625 0 L 10.6875 -1.546875 C 10.03125 -1.066406 9.300781 -0.648438 8.5 -0.296875 C 7.707031 0.0546875 6.894531 0.234375 6.0625 0.234375 C 4.695312 0.234375 3.664062 -0.0078125 2.96875 -0.5 C 2.269531 -1 1.796875 -1.671875 1.546875 -2.515625 C 1.296875 -3.359375 1.171875 -4.289062 1.171875 -5.3125 L 1.171875 -8.796875 C 1.171875 -9.929688 1.332031 -10.921875 1.65625 -11.765625 C 1.988281 -12.609375 2.582031 -13.257812 3.4375 -13.71875 C 4.300781 -14.175781 5.515625 -14.40625 7.078125 -14.40625 Z M 5.796875 -8.875 L 5.796875 -5.3125 C 5.796875 -4.820312 5.882812 -4.394531 6.0625 -4.03125 C 6.238281 -3.664062 6.628906 -3.484375 7.234375 -3.484375 C 7.710938 -3.484375 8.222656 -3.625 8.765625 -3.90625 C 9.304688 -4.1875 9.816406 -4.523438 10.296875 -4.921875 L 10.296875 -10.609375 C 9.921875 -10.648438 9.519531 -10.679688 9.09375 -10.703125 C 8.664062 -10.734375 8.273438 -10.75 7.921875 -10.75 C 7.210938 -10.75 6.710938 -10.644531 6.421875 -10.4375 C 6.128906 -10.226562 5.953125 -9.976562 5.890625 -9.6875 C 5.828125 -9.394531 5.796875 -9.125 5.796875 -8.875 Z M 5.796875 -8.875 "/></g></g></g><g fill="#1d1e22" fill-opacity="1"><g transform="translate(61.728662, 19.287567)"><g><path d="M 10.421875 -14.125 L 10.421875 -10.390625 L 7.265625 -10.390625 L 7.265625 -5.234375 C 7.265625 -4.015625 7.6875 -3.40625 8.53125 -3.40625 C 8.601562 -3.40625 8.769531 -3.410156 9.03125 -3.421875 C 9.289062 -3.429688 9.554688 -3.441406 9.828125 -3.453125 C 10.097656 -3.472656 10.296875 -3.492188 10.421875 -3.515625 L 10.421875 -0.03125 C 10.171875 0.0195312 9.8125 0.0664062 9.34375 0.109375 C 8.875 0.160156 8.40625 0.203125 7.9375 0.234375 C 7.46875 0.273438 7.09375 0.296875 6.8125 0.296875 C 5.570312 0.296875 4.660156 0.0820312 4.078125 -0.34375 C 3.503906 -0.769531 3.132812 -1.363281 2.96875 -2.125 C 2.8125 -2.882812 2.734375 -3.753906 2.734375 -4.734375 L 2.734375 -10.390625 L 0.421875 -10.390625 L 0.421875 -14.125 L 2.734375 -14.125 L 2.734375 -17.390625 L 7.265625 -17.390625 L 7.265625 -14.125 Z M 10.421875 -14.125 "/></g></g></g><g fill="#1d1e22" fill-opacity="1"><g transform="translate(77.044577, 19.287567)"><g><path d="M 13.875 -8.375 L 13.875 -5.6875 L 5.796875 -5.6875 L 5.796875 -5.375 C 5.796875 -4.945312 5.835938 -4.585938 5.921875 -4.296875 C 6.015625 -4.015625 6.210938 -3.800781 6.515625 -3.65625 C 6.816406 -3.507812 7.285156 -3.4375 7.921875 -3.4375 C 8.773438 -3.4375 9.648438 -3.453125 10.546875 -3.484375 C 11.453125 -3.515625 12.359375 -3.59375 13.265625 -3.71875 L 13.328125 -0.265625 C 12.921875 -0.140625 12.476562 -0.0390625 12 0.03125 C 11.53125 0.113281 10.972656 0.171875 10.328125 0.203125 C 9.679688 0.242188 8.878906 0.265625 7.921875 0.265625 C 6.398438 0.265625 5.1875 0.117188 4.28125 -0.171875 C 3.375 -0.460938 2.695312 -0.878906 2.25 -1.421875 C 1.8125 -1.960938 1.519531 -2.597656 1.375 -3.328125 C 1.238281 -4.054688 1.171875 -4.851562 1.171875 -5.71875 L 1.171875 -8.515625 C 1.171875 -9.835938 1.335938 -10.929688 1.671875 -11.796875 C 2.015625 -12.671875 2.660156 -13.320312 3.609375 -13.75 C 4.566406 -14.1875 5.96875 -14.40625 7.8125 -14.40625 C 9.238281 -14.40625 10.359375 -14.242188 11.171875 -13.921875 C 11.984375 -13.597656 12.582031 -13.148438 12.96875 -12.578125 C 13.363281 -12.015625 13.613281 -11.375 13.71875 -10.65625 C 13.820312 -9.9375 13.875 -9.175781 13.875 -8.375 Z M 5.796875 -8.859375 L 5.796875 -8.375 L 9.78125 -8.375 L 9.78125 -8.875 C 9.78125 -9.289062 9.742188 -9.644531 9.671875 -9.9375 C 9.609375 -10.238281 9.4375 -10.472656 9.15625 -10.640625 C 8.882812 -10.816406 8.4375 -10.90625 7.8125 -10.90625 C 6.914062 -10.90625 6.351562 -10.726562 6.125 -10.375 C 5.90625 -10.03125 5.796875 -9.523438 5.796875 -8.859375 Z M 5.796875 -8.859375 "/></g></g></g><g fill="#1d1e22" fill-opacity="1"><g transform="translate(19.427566, 46.274672)"><g><path d="M 15.53125 -0.796875 L 11.53125 -8.4375 C 13.953125 -9.046875 15.375 -10.84375 15.375 -13.53125 L 15.375 -13.71875 C 15.375 -17.078125 13.1875 -18.65625 9.5 -18.65625 L 3.828125 -18.65625 C 3.40625 -18.65625 3.15625 -18.40625 3.15625 -17.984375 L 3.15625 -0.671875 C 3.15625 -0.25 3.40625 0 3.828125 0 L 3.875 0 C 4.296875 0 4.546875 -0.25 4.546875 -0.671875 L 4.546875 -8.21875 L 9.5625 -8.21875 C 9.75 -8.21875 9.921875 -8.21875 10.078125 -8.234375 L 14.140625 -0.484375 C 14.296875 -0.15625 14.5625 0 14.9375 0 L 15.1875 0 C 15.625 0 15.765625 -0.328125 15.53125 -0.796875 Z M 9.546875 -9.546875 L 4.546875 -9.546875 L 4.546875 -17.328125 L 9.6875 -17.328125 C 12.359375 -17.328125 13.921875 -16.265625 13.921875 -13.625 L 13.921875 -13.4375 C 13.921875 -10.84375 12.34375 -9.546875 9.546875 -9.546875 Z M 9.546875 -9.546875 "/></g></g></g><g fill="#1d1e22" fill-opacity="1"><g transform="translate(40.696065, 46.274672)"><g><path d="M 9.515625 0.34375 C 14.34375 0.34375 17.078125 -3.03125 17.078125 -9.359375 C 17.078125 -15.65625 14.34375 -19.015625 9.515625 -19.015625 C 4.671875 -19.015625 1.953125 -15.65625 1.953125 -9.359375 C 1.953125 -3.03125 4.671875 0.34375 9.515625 0.34375 Z M 9.515625 -0.953125 C 5.59375 -0.953125 3.40625 -3.875 3.40625 -9.328125 C 3.40625 -14.765625 5.59375 -17.6875 9.515625 -17.6875 C 13.40625 -17.6875 15.625 -14.765625 15.625 -9.328125 C 15.625 -3.875 13.40625 -0.953125 9.515625 -0.953125 Z M 9.515625 -0.953125 "/></g></g></g><g fill="#1d1e22" fill-opacity="1"><g transform="translate(63.200532, 46.274672)"><g><path d="M 14.515625 -17.984375 L 14.515625 -10.125 L 4.546875 -10.125 L 4.546875 -17.984375 C 4.546875 -18.40625 4.296875 -18.65625 3.875 -18.65625 L 3.828125 -18.65625 C 3.40625 -18.65625 3.15625 -18.40625 3.15625 -17.984375 L 3.15625 -0.671875 C 3.15625 -0.25 3.40625 0 3.828125 0 L 3.875 0 C 4.296875 0 4.546875 -0.25 4.546875 -0.671875 L 4.546875 -8.796875 L 14.515625 -8.796875 L 14.515625 -0.671875 C 14.515625 -0.25 14.765625 0 15.1875 0 L 15.234375 0 C 15.65625 0 15.90625 -0.25 15.90625 -0.671875 L 15.90625 -17.984375 C 15.90625 -18.40625 15.65625 -18.65625 15.234375 -18.65625 L 15.1875 -18.65625 C 14.765625 -18.65625 14.515625 -18.40625 14.515625 -17.984375 Z M 14.515625 -17.984375 "/></g></g></g><g fill="#1d1e22" fill-opacity="1"><g transform="translate(85.751645, 46.274672)"><g><path d="M 6.390625 0.34375 L 6.8125 0.34375 C 7.203125 0.34375 7.46875 0.140625 7.5625 -0.234375 L 11.25 -14.390625 L 11.65625 -16.46875 L 11.75 -16.46875 L 12.171875 -14.390625 L 15.890625 -0.234375 C 15.984375 0.140625 16.234375 0.34375 16.640625 0.34375 L 17.03125 0.34375 C 17.421875 0.34375 17.6875 0.15625 17.78125 -0.234375 L 22.015625 -17.921875 C 22.140625 -18.375 21.90625 -18.65625 21.4375 -18.65625 L 21.421875 -18.65625 C 21.015625 -18.65625 20.765625 -18.46875 20.671875 -18.078125 L 17.1875 -3.328125 L 16.890625 -1.515625 L 16.796875 -1.515625 L 16.421875 -3.3125 L 12.640625 -18.078125 C 12.546875 -18.453125 12.296875 -18.65625 11.890625 -18.65625 L 11.53125 -18.65625 C 11.125 -18.65625 10.875 -18.453125 10.78125 -18.078125 L 7.015625 -3.3125 L 6.671875 -1.515625 L 6.578125 -1.515625 L 6.25 -3.3125 L 2.78125 -18.078125 C 2.6875 -18.46875 2.421875 -18.65625 2.03125 -18.65625 L 1.9375 -18.65625 C 1.5 -18.65625 1.28125 -18.375 1.40625 -17.921875 L 5.640625 -0.234375 C 5.734375 0.15625 6 0.34375 6.390625 0.34375 Z M 6.390625 0.34375 "/></g></g></g><g fill="#1d1e22" fill-opacity="1"><g transform="translate(112.663628, 46.274672)"><g><path d="M 4.546875 -1.328125 L 4.546875 -8.953125 L 14.1875 -8.953125 C 14.609375 -8.953125 14.859375 -9.21875 14.859375 -9.640625 C 14.859375 -10.046875 14.609375 -10.28125 14.1875 -10.28125 L 4.546875 -10.28125 L 4.546875 -17.328125 L 14.421875 -17.328125 C 14.84375 -17.328125 15.09375 -17.59375 15.09375 -18.015625 C 15.09375 -18.421875 14.84375 -18.65625 14.421875 -18.65625 L 3.828125 -18.65625 C 3.40625 -18.65625 3.15625 -18.40625 3.15625 -17.984375 L 3.15625 -0.671875 C 3.15625 -0.25 3.40625 0 3.828125 0 L 14.65625 0 C 15.0625 0 15.328125 -0.25 15.328125 -0.671875 C 15.328125 -1.09375 15.0625 -1.328125 14.65625 -1.328125 Z M 4.546875 -1.328125 "/></g></g></g><g fill="#1d1e22" fill-opacity="1"><g transform="translate(133.372441, 46.274672)"><g><path d="M 8.8125 -18.65625 L 3.828125 -18.65625 C 3.40625 -18.65625 3.15625 -18.40625 3.15625 -17.984375 L 3.15625 -0.671875 C 3.15625 -0.25 3.40625 0 3.828125 0 L 8.515625 0 C 13.40625 0 16.171875 -3.59375 16.171875 -9.609375 C 16.171875 -15.4375 13.40625 -18.65625 8.8125 -18.65625 Z M 8.5625 -1.328125 L 4.546875 -1.328125 L 4.546875 -17.328125 L 8.765625 -17.328125 C 12.484375 -17.328125 14.71875 -14.53125 14.71875 -9.546875 C 14.71875 -4.359375 12.53125 -1.328125 8.5625 -1.328125 Z M 8.5625 -1.328125 "/></g></g></g><g fill="#1d1e22" fill-opacity="1"><g transform="translate(154.990738, 46.274672)"><g><path d="M 4.546875 -1.328125 L 4.546875 -8.953125 L 14.1875 -8.953125 C 14.609375 -8.953125 14.859375 -9.21875 14.859375 -9.640625 C 14.859375 -10.046875 14.609375 -10.28125 14.1875 -10.28125 L 4.546875 -10.28125 L 4.546875 -17.328125 L 14.421875 -17.328125 C 14.84375 -17.328125 15.09375 -17.59375 15.09375 -18.015625 C 15.09375 -18.421875 14.84375 -18.65625 14.421875 -18.65625 L 3.828125 -18.65625 C 3.40625 -18.65625 3.15625 -18.40625 3.15625 -17.984375 L 3.15625 -0.671875 C 3.15625 -0.25 3.40625 0 3.828125 0 L 14.65625 0 C 15.0625 0 15.328125 -0.25 15.328125 -0.671875 C 15.328125 -1.09375 15.0625 -1.328125 14.65625 -1.328125 Z M 4.546875 -1.328125 "/></g></g></g><g fill="#1d1e22" fill-opacity="1"><g transform="translate(175.699552, 46.274672)"><g><path d="M 15.53125 -0.796875 L 11.53125 -8.4375 C 13.953125 -9.046875 15.375 -10.84375 15.375 -13.53125 L 15.375 -13.71875 C 15.375 -17.078125 13.1875 -18.65625 9.5 -18.65625 L 3.828125 -18.65625 C 3.40625 -18.65625 3.15625 -18.40625 3.15625 -17.984375 L 3.15625 -0.671875 C 3.15625 -0.25 3.40625 0 3.828125 0 L 3.875 0 C 4.296875 0 4.546875 -0.25 4.546875 -0.671875 L 4.546875 -8.21875 L 9.5625 -8.21875 C 9.75 -8.21875 9.921875 -8.21875 10.078125 -8.234375 L 14.140625 -0.484375 C 14.296875 -0.15625 14.5625 0 14.9375 0 L 15.1875 0 C 15.625 0 15.765625 -0.328125 15.53125 -0.796875 Z M 9.546875 -9.546875 L 4.546875 -9.546875 L 4.546875 -17.328125 L 9.6875 -17.328125 C 12.359375 -17.328125 13.921875 -16.265625 13.921875 -13.625 L 13.921875 -13.4375 C 13.921875 -10.84375 12.34375 -9.546875 9.546875 -9.546875 Z M 9.546875 -9.546875 "/></g></g></g></svg>